<?xml version="1.0" encoding="UTF-8"?>
<svg id="Layer_1" data-name="Layer 1" xmlns="http://www.w3.org/2000/svg" viewBox="0 0 1366.49 857.77">
  <g>
    <path d="M173.5,493.91c-.75,5.97-2.4,11.84-4.92,17.3-3.11,6.76-7.53,12.96-9.63,20.1-2.1,7.14-1.24,15.92,4.64,20.48,4.93,3.81,12.32,3.48,17.5.02s8.23-9.54,9.01-15.73c1.39-11.07-2.37-20.02-5.28-26.52-3.19-7.1-6.99-16.21-11.02-27.48-.73,3.27,0,9.41-.3,11.83Z"/>
    <path d="M246.5,347.25s.02,0,.02-.01c.08-.28-13.64-6.51-27.69-5.76-5.87.31-12.5,3.49-12.5,3.49-1.1.68-.8,2.36.47,2.6,2.64.49,4.67,1.09,6.08,1.79,1.96.98,2.67,7.01,2.14,8.5-.03.08-.05.15-.06.23-.11.83-.32,2.38-.65,4.28-5.86,34.12-25.61,46.89-36.79,83.35-.61,1.98-1.5,5.03-2.41,8.89-.17.73-1.24.66-1.31-.09-.79-8.28-2.18-14.89-3.33-19.5-5.58-22.3-23.17-67.61-28.02-78.52-.27-.6-.42-1.58-.42-2.73,0-3.64,4.13-5.89,12.4-6.73.02,0,.07,0,.07-.03.07-.29-6.51-2.33-10.36-3.31-3.69-.94-9.12-2-16.13-2.23-5.61-.41-9.96.28-12.83.96-5.35,1.26-11.46,3.88-11.32,4.38,0,.01.01.04.04.06.31.21.68.34,1.11.38,5.05.7,8.55,1.54,10.51,2.52,1.96.98,3.36,2.45,4.2,4.41,16.07,36.81,32.14,73.62,48.21,110.43.02.05.04.09.05.14,1.52,4.85,3.02,9.41,4.51,13.67-.02.24,0,.46,0,.67.09.2.15.4.19.61.08.18.15.37.2.57.01,0,.02.02.03.03.07.03.15.05.26.05.2.58.4,1.14.61,1.7.18-.79.44-1.39.82-1.75.09-.31.23-.61.43-.87.08-.1.15-.21.19-.33,7.78-19.6,16.23-39.04,24.34-58.54,9.06-21.78,18.02-43.61,27.17-65.35M168.33,465.47c.77,1.76,1.3,3.45,1.83,5.13l-1.83-5.13ZM172.12,476.13c.21.39.58.96.51,1.42l-.51-1.42Z"/>
    <polygon points="171.98 475.74 171.98 475.74 171.98 475.74 171.98 475.74"/>
    <path d="M384.41,404.94c.53-.4,1.74-1.67,3.61-3.8,1.87-2.13,4.31-4.4,7.33-6.8,3.01-2.4,6.49-4.6,10.44-6.6s8.2-3,12.75-3c8.03,0,13.72,2.37,17.06,7.1,3.34,4.73,5.02,11.3,5.02,19.7v48.6c0,2,1.2,3.5,3.6,4.5,2.4,1,5.07,1.77,8,2.3,1.2.27,1.8,1.07,1.8,2.4,0,.8-.13,1.87-.4,3.2-3.47-.27-6.87-.5-10.21-.7-3.34-.2-6.97-.3-10.88-.3-3.51,0-7.07.1-10.68.3-3.61.2-7.09.43-10.42.7-.27-1.33-.4-2.4-.4-3.2,0-1.33.6-2.13,1.8-2.4,1.2-.13,2.43-.4,3.7-.8,1.27-.4,2.43-.87,3.5-1.4,1.07-.53,1.97-1.17,2.7-1.9s1.1-1.63,1.1-2.7v-41.2c0-8.27-1-13.83-3-16.7-2-2.87-5.27-4.3-9.8-4.3-3.47,0-6.77.57-9.9,1.7-3.13,1.13-5.9,2.8-8.3,5-2.4,2.2-4.33,4.9-5.8,8.1-1.47,3.2-2.2,6.87-2.2,11v36.4c0,2,1.13,3.5,3.4,4.5,2.27,1,4.8,1.77,7.6,2.3,1.2.27,1.8,1.07,1.8,2.4,0,.8-.13,1.87-.4,3.2-3.47-.27-6.83-.5-10.1-.7-3.27-.2-6.7-.3-10.3-.3s-7.17.1-10.7.3c-3.53.2-7.03.43-10.5.7-.27-1.33-.4-2.4-.4-3.2,0-1.33.6-2.13,1.8-2.4,2.4-.4,4.83-1.1,7.3-2.1,2.47-1,3.7-2.57,3.7-4.7v-41.2c0-8.27-.96-13.83-2.88-16.7-1.93-2.87-5.14-4.3-9.65-4.3-3.45,0-6.73.57-9.85,1.7-3.12,1.13-5.9,2.8-8.36,5-2.46,2.2-4.41,4.9-5.87,8.1-1.46,3.2-2.19,6.87-2.19,11v36.4c0,2,1.17,3.5,3.5,4.5,2.33,1,4.83,1.77,7.5,2.3,1.2.27,1.8,1.07,1.8,2.4,0,.8-.13,1.87-.4,3.2-3.47-.27-6.88-.5-10.22-.7s-6.91-.3-10.68-.3-7.61.1-11.09.3-6.88.43-10.21.7c-.27-1.33-.4-2.4-.4-3.2,0-1.33.6-2.13,1.8-2.4,2.93-.53,5.6-1.3,8-2.3s3.6-2.57,3.6-4.7v-54.4c0-4-.7-6.87-2.1-8.6-1.4-1.73-4.43-2.8-9.1-3.2-1.73-.27-2.6-1.2-2.6-2.8,0-.67.13-1.53.4-2.6,1.73,0,4.17-.1,7.3-.3,3.13-.2,5.71-.43,7.72-.7,3.1-.53,5.86-1.1,8.29-1.7,2.43-.6,4.18-.9,5.26-.9,1.89,0,2.83,1,2.83,3,0,1.87-.2,4.1-.6,6.7s-.6,6.03-.6,10.3c.4-.4,1.53-1.67,3.39-3.8,1.86-2.13,4.28-4.4,7.27-6.8,2.99-2.4,6.41-4.57,10.26-6.5,3.85-1.93,8.11-2.9,12.76-2.9,6.91,0,12.06,1.77,15.44,5.3,3.39,3.53,5.41,8.5,6.08,14.9Z"/>
    <path d="M453.31,412.5c0-3.73-.63-6.4-1.9-8-1.27-1.6-4.17-2.6-8.7-3-1.73-.27-2.6-1.13-2.6-2.6,0-.8.13-1.73.4-2.8,1.73,0,4.1-.1,7.1-.3s5.5-.5,7.5-.9c2.93-.4,5.57-.9,7.9-1.5,2.33-.6,4.03-.9,5.1-.9,1.73,0,2.6,1,2.6,3,0,1.6-.1,3.5-.3,5.7-.2,2.2-.3,5.43-.3,9.7,4-5.2,8.5-9.57,13.5-13.1,5-3.53,11.17-5.3,18.5-5.3,4.53,0,8.9.93,13.1,2.8,4.2,1.87,7.9,4.63,11.1,8.3,3.2,3.67,5.77,8.17,7.7,13.5,1.93,5.33,2.9,11.4,2.9,18.2,0,7.47-1.4,14.07-4.2,19.8-2.8,5.73-6.27,10.57-10.4,14.5-4.13,3.93-8.63,6.93-13.5,9-4.87,2.07-9.37,3.1-13.5,3.1s-8.43-.4-12.5-1.2c-4.07-.8-8.3-2.2-12.7-4.2v36.2c0,3.46,1.53,5.83,4.6,7.1,3.07,1.27,8.07,2.23,15,2.9,1.47.27,2.2,1.13,2.2,2.6,0,.8-.13,1.87-.4,3.2-3.07-.27-7.27-.5-12.6-.7-5.33-.2-10.33-.3-15-.3-3.47,0-7.13.1-11,.3-3.87.2-7.53.43-11,.7-.27-1.33-.4-2.4-.4-3.2,0-1.33.6-2.13,1.8-2.4,2.93-.67,5.33-1.47,7.2-2.4,1.87-.93,2.8-2.47,2.8-4.6v-103.2ZM470.11,463.1c3.33,3.47,7,6.23,11,8.3,4,2.07,8.53,3.1,13.6,3.1,3.87,0,7.27-.87,10.2-2.6,2.93-1.73,5.37-4.1,7.3-7.1,1.93-3,3.4-6.6,4.4-10.8,1-4.2,1.5-8.77,1.5-13.7s-.57-9.9-1.7-14.5c-1.13-4.6-2.8-8.63-5-12.1-2.2-3.47-4.87-6.2-8-8.2-3.13-2-6.63-3-10.5-3-2.67,0-5.33.77-8,2.3-2.67,1.53-5.1,3.5-7.3,5.9-2.2,2.4-4,5.1-5.4,8.1-1.4,3-2.1,6.03-2.1,9.1v35.2Z"/>
    <path d="M572.31,459.54c2-5.07,4.2-10.3,6.6-15.7,2.4-5.4,4.63-10.5,6.7-15.3,2.07-4.8,3.77-9.13,5.1-13,1.33-3.87,2-6.73,2-8.6,0-1.2-.53-2.1-1.6-2.7-1.07-.6-2.23-1.13-3.5-1.6-1.27-.47-2.43-.93-3.5-1.4-1.07-.47-1.6-1.23-1.6-2.3,0-.27.07-.67.2-1.2.13-.53.27-1,.4-1.4,5.2.4,10.73.6,16.6.6,3.07,0,5.73-.03,8-.1,2.27-.07,4.4-.23,6.4-.5.27.4.43.87.5,1.4.07.53.1.93.1,1.2,0,1.47-.87,2.4-2.6,2.8-2,.4-3.57.8-4.7,1.2-1.13.4-2.07.93-2.8,1.6-.73.67-1.4,1.53-2,2.6-.6,1.07-1.3,2.6-2.1,4.6l-41,96.8c-2.67,6.4-6.67,11.46-12,15.2-5.33,3.73-11.07,5.6-17.2,5.6-1.07,0-1.84-.3-2.3-.9-.47-.6-.7-1.3-.7-2.1,0-1.47.2-3.03.6-4.7.4-1.67.93-3.2,1.6-4.6.67-1.4,1.43-2.54,2.3-3.4.87-.87,1.77-1.3,2.7-1.3,1.07,0,2.03.1,2.9.3.87.2,1.83.3,2.9.3,3.6,0,6.27-.7,8-2.1,1.73-1.4,3.27-3.63,4.6-6.7l10.2-23.8-30.8-68.6c-.94-1.87-1.73-3.37-2.4-4.5-.67-1.13-1.4-2.07-2.2-2.8-.8-.73-1.73-1.27-2.8-1.6-1.07-.33-2.47-.63-4.2-.9-1.73-.4-2.6-1.4-2.6-3,0-.27.03-.67.1-1.2.07-.53.23-1,.5-1.4,2.67.27,5.37.43,8.1.5,2.73.07,5.83.1,9.3.1h5.8c3.2,0,6.2-.03,9-.1,2.8-.07,5.6-.23,8.4-.5.27.4.43.87.5,1.4.06.53.1.93.1,1.2,0,1.6-.87,2.47-2.6,2.6-3.07.53-5.13,1.1-6.2,1.7-1.07.6-1.6,1.43-1.6,2.5,0,.67.4,2.33,1.2,5,.8,2.67,2.13,6,4,10l17.6,38.8Z"/>
    <path d="M660.21,394.7c3.87,0,6.73.93,8.6,2.8,1.87,1.87,2.8,3.93,2.8,6.2,0,.8-.13,1.53-.4,2.2-.27.67-.9,1.37-1.9,2.1-1,.73-2.4,1.6-4.2,2.6s-4.3,2.23-7.5,3.7c-1.2-1.47-2.63-2.73-4.3-3.8-1.67-1.07-3.5-1.6-5.5-1.6-2.27,0-4.33.63-6.2,1.9-1.87,1.27-3.47,3-4.8,5.2-1.33,2.2-2.37,4.73-3.1,7.6-.73,2.87-1.1,5.83-1.1,8.9v34.4c0,2.93,1.53,5.1,4.6,6.5,3.07,1.4,7.46,2.5,13.2,3.3,1.33.27,2,1.07,2,2.4,0,.8-.13,1.87-.4,3.2-1.47-.13-3.3-.23-5.5-.3-2.2-.07-4.5-.17-6.9-.3-2.4-.13-4.88-.23-7.42-.3-2.55-.07-4.91-.1-7.07-.1-3.64,0-7.41.1-11.29.3-3.88.2-7.56.43-11.02.7-.27-1.33-.4-2.4-.4-3.2,0-1.33.6-2.13,1.8-2.4,3.07-.53,5.77-1.33,8.1-2.4,2.33-1.07,3.5-2.6,3.5-4.6v-50.8c0-2.8-.17-5.13-.5-7-.33-1.87-.9-3.37-1.7-4.5-.8-1.13-1.97-1.97-3.5-2.5-1.53-.53-3.5-.93-5.9-1.2-1.73-.27-2.6-1.13-2.6-2.6,0-.8.13-1.73.4-2.8,1.73,0,4.17-.1,7.3-.3,3.13-.2,5.7-.43,7.72-.7,2.97-.53,5.57-1.1,7.79-1.7,2.23-.6,3.88-.9,4.96-.9,1.89,0,2.83,1,2.83,3v13.4c4.27-4.67,8.57-8.57,12.9-11.7,4.33-3.13,9.23-4.7,14.7-4.7Z"/>
    <path d="M932.94,483.07c1.47,0,2.27,1.4,2.4,4.2-3.47,2.4-7.87,3.6-13.2,3.6-2.95,0-5.5-.43-7.67-1.3-2.16-.87-3.98-2.03-5.47-3.5-1.49-1.47-2.63-3.13-3.44-5-.81-1.87-1.35-3.8-1.62-5.8-3.33,6-7.3,10.1-11.9,12.3-4.6,2.2-9.9,3.3-15.9,3.3-2.67,0-5.5-.23-8.5-.7-3-.47-5.83-1.43-8.5-2.9-2.67-1.47-4.87-3.53-6.6-6.2-1.73-2.67-2.6-6.2-2.6-10.6,0-4.93,1.17-9.1,3.5-12.5,2.33-3.4,5.33-6.2,9-8.4,3.67-2.2,7.67-3.97,12-5.3,4.33-1.33,8.5-2.47,12.5-3.4,2.27-.4,4.37-.83,6.3-1.3,1.93-.47,3.63-.97,5.1-1.5,1.87-.53,3.03-1.27,3.5-2.2.47-.93.7-2.73.7-5.4,0-6.27-1.2-11.43-3.6-15.5-2.4-4.07-6.67-6.1-12.8-6.1-2.27,0-4.2.27-5.8.8-1.6.53-2.93,1.37-4,2.5-1.07,1.13-2,2.63-2.8,4.5-.8,1.87-1.6,4.07-2.4,6.6-.4,1.47-1.3,2.53-2.7,3.2-1.4.67-3.77,1.47-7.1,2.4-.8.27-1.8.53-3,.8-1.2.27-2.2.4-3,.4-1.33,0-2-1.4-2-4.2s1.13-5.87,3.4-8.8c2.27-2.93,5.17-5.53,8.7-7.8,3.53-2.27,7.37-4.1,11.5-5.5,4.13-1.4,8.07-2.1,11.8-2.1,4.67,0,8.88.4,12.62,1.2,3.75.8,6.97,2.27,9.67,4.4,2.7,2.13,4.76,5,6.17,8.6,1.42,3.6,2.12,8.27,2.12,14v34.4c0,4.67.17,8.03.5,10.1.33,2.07.83,3.7,1.5,4.9.93,1.87,1.97,3.1,3.1,3.7,1.13.6,2.3.9,3.5.9,1.47,0,2.5-.13,3.1-.4.6-.27,1.23-.4,1.9-.4ZM902.54,444.07l-6.44,1c-3.49.67-6.88,1.47-10.16,2.4-3.29.93-6.2,2.23-8.75,3.9-2.55,1.67-4.59,3.77-6.14,6.3-1.54,2.53-2.31,5.67-2.31,9.4,0,5.07,1.31,8.93,3.92,11.6,2.62,2.67,5.87,4,9.76,4,2.55,0,5.06-.57,7.54-1.7,2.48-1.13,4.62-2.73,6.44-4.8,1.81-2.07,3.29-4.5,4.43-7.3,1.14-2.8,1.71-5.87,1.71-9.2v-15.6Z"/>
    <path d="M978.5,402.07c3.87,0,6.73.94,8.6,2.83,1.87,1.89,2.8,3.97,2.8,6.26,0,.81-.13,1.55-.4,2.22-.27.67-.9,1.38-1.9,2.12-1,.74-2.4,1.61-4.2,2.62s-4.3,2.25-7.5,3.73c-1.2-1.48-2.63-2.76-4.3-3.83-1.67-1.08-3.5-1.61-5.5-1.61-2.27,0-4.33.64-6.2,1.92-1.87,1.28-3.47,3.03-4.8,5.25-1.33,2.22-2.37,4.78-3.1,7.67-.73,2.9-1.1,5.89-1.1,8.98v34.71c0,2.96,1.53,5.15,4.6,6.56,3.07,1.41,7.46,2.52,13.2,3.33,1.33.27,2,1.08,2,2.42,0,.81-.13,1.89-.4,3.23-1.47-.14-3.3-.24-5.5-.3-2.2-.07-4.5-.17-6.9-.3-2.4-.14-4.88-.24-7.42-.3-2.55-.07-4.91-.1-7.07-.1-3.64,0-7.41.1-11.29.3-3.88.2-7.56.44-11.02.71-.27-1.34-.4-2.42-.4-3.23,0-1.34.6-2.15,1.8-2.42,3.07-.54,5.77-1.34,8.1-2.42,2.33-1.08,3.5-2.62,3.5-4.64v-51.26c0-2.83-.17-5.18-.5-7.06-.33-1.88-.9-3.4-1.7-4.54-.8-1.14-1.97-1.98-3.5-2.52-1.53-.54-3.5-.94-5.9-1.21-1.73-.27-2.6-1.14-2.6-2.62,0-.81.13-1.75.4-2.83,1.73,0,4.17-.1,7.3-.3,3.13-.2,5.7-.44,7.72-.71,2.97-.54,5.57-1.11,7.79-1.72,2.23-.61,3.88-.91,4.96-.91,1.89,0,2.83,1.01,2.83,3.03v13.52c4.27-4.71,8.57-8.64,12.9-11.81,4.33-3.16,9.23-4.74,14.7-4.74Z"/>
    <path d="M1024.97,426.27c-1.07,0-1.83-.23-2.3-.7-.47-.47-.77-.97-.9-1.5-.93-5.47-3.1-9.37-6.5-11.7-3.4-2.33-7.63-3.5-12.7-3.5-3.87,0-7.3,1.1-10.3,3.3-3,2.2-4.5,5.23-4.5,9.1,0,3.47,1.37,6.37,4.1,8.7,2.73,2.33,7.7,4.63,14.9,6.9,3.87,1.2,7.43,2.53,10.7,4,3.27,1.47,6.07,3.23,8.4,5.3,2.33,2.07,4.17,4.6,5.5,7.6,1.33,3,2,6.57,2,10.7,0,3.47-.63,6.8-1.9,10-1.27,3.2-3.2,6-5.8,8.4-2.6,2.4-5.87,4.33-9.8,5.8-3.93,1.46-8.63,2.2-14.1,2.2-4.27,0-9.03-.5-14.3-1.5-5.27-1-10.03-2.7-14.3-5.1-.27-3.47-.5-7.1-.7-10.9-.2-3.8-.3-7.63-.3-11.5h2c1.33,0,2.46.23,3.4.7.93.47,1.47,1.23,1.6,2.3.53,5.6,2.7,10.1,6.5,13.5,3.8,3.4,9.1,5.1,15.9,5.1,5.47,0,9.67-1.23,12.6-3.7,2.93-2.47,4.4-5.83,4.4-10.1s-1.6-7.77-4.8-10.1c-3.2-2.33-7.93-4.43-14.2-6.3-7.87-2.4-14.03-5.53-18.5-9.4-4.47-3.87-6.7-9.53-6.7-17,0-3.47.67-6.73,2-9.8,1.33-3.07,3.2-5.73,5.6-8,2.4-2.27,5.33-4.07,8.8-5.4,3.47-1.33,7.33-2,11.6-2,5.33,0,10.37.7,15.1,2.1,4.73,1.4,8.43,2.9,11.1,4.5.13,1.07.27,2.37.4,3.9.13,1.53.23,3.13.3,4.8.07,1.67.13,3.33.2,5,.07,1.67.1,3.17.1,4.5l-4.6-.2Z"/>
    <path d="M1101.68,469.87c.93-.93,1.93-1.4,2.99-1.4,1.33,0,2.59,1.13,3.79,3.4-1.73,2.4-3.73,4.73-6,7-2.27,2.27-4.97,4.3-8.1,6.1-3.13,1.8-6.7,3.23-10.7,4.3s-8.6,1.6-13.8,1.6-10.4-.87-15.2-2.6c-4.8-1.73-9.04-4.4-12.7-8-3.67-3.6-6.6-8.07-8.8-13.4-2.2-5.33-3.3-11.6-3.3-18.8,0-6.8,1.3-13.07,3.9-18.8,2.6-5.73,5.97-10.63,10.1-14.7,4.13-4.07,8.7-7.23,13.7-9.5,5-2.27,9.83-3.4,14.5-3.4,12.4,0,21.43,3.6,27.1,10.8,5.67,7.2,8.5,16.6,8.5,28.2,0,.8-.4,1.2-1.2,1.2l-57.8,2.6c0,5.2.73,10,2.19,14.4,1.46,4.4,3.52,8.2,6.18,11.4,2.66,3.2,5.88,5.7,9.67,7.5,3.79,1.8,8.07,2.7,12.86,2.7,4.25,0,8.34-1,12.26-3,3.92-2,7.21-4.53,9.87-7.6ZM1069.35,408.87c-6.64,0-11.81,2.6-15.52,7.8-3.72,5.2-5.57,12-5.57,20.4l37.62-1.8c1.99,0,2.98-.87,2.98-2.6,0-2.53-.4-5.2-1.19-8-.8-2.8-1.99-5.37-3.58-7.7-1.59-2.33-3.62-4.27-6.07-5.8-2.46-1.53-5.34-2.3-8.66-2.3Z"/>
    <path d="M1138.55,493.47c-3.47-.27-7.01-.5-10.62-.7-3.61-.2-7.24-.3-10.88-.3s-7.37.1-11.18.3-7.39.43-10.72.7c-.27-1.33-.4-2.4-.4-3.2,0-1.33.6-2.13,1.8-2.4,2.93-.53,5.67-1.3,8.2-2.3,2.53-1,3.8-2.57,3.8-4.7v-107.6c0-4.27-.83-7.17-2.5-8.7-1.67-1.53-4.83-2.5-9.5-2.9-1.73-.27-2.6-1.2-2.6-2.8,0-.8.13-1.73.4-2.8,1.73,0,4.13-.1,7.2-.3,3.07-.2,5.87-.43,8.42-.7,3.1-.4,5.87-.93,8.29-1.6,2.43-.67,4.18-1,5.26-1,1.21,0,2.02.27,2.43.8.4.53.61,1.27.61,2.2,0,2.27-.2,4.9-.6,7.9-.4,3-.6,6.5-.6,10.5v107c0,2.13,1.23,3.7,3.7,4.7,2.47,1,5.23,1.77,8.3,2.3,1.07.27,1.6,1.07,1.6,2.4,0,.8-.13,1.87-.4,3.2Z"/>
    <path d="M299.93,467.64c1.47,0,2.27,1.4,2.4,4.2-3.47,2.4-7.87,3.6-13.2,3.6-2.95,0-5.5-.43-7.67-1.3-2.16-.87-3.98-2.03-5.47-3.5-1.49-1.47-2.63-3.13-3.44-5-.81-1.87-1.35-3.8-1.62-5.8-3.33,6-7.3,10.1-11.9,12.3-4.6,2.2-9.9,3.3-15.9,3.3-2.67,0-5.5-.23-8.5-.7-3-.47-5.83-1.43-8.5-2.9-2.67-1.47-4.87-3.53-6.6-6.2-1.73-2.67-2.6-6.2-2.6-10.6,0-4.93,1.17-9.1,3.5-12.5,2.33-3.4,5.33-6.2,9-8.4,3.67-2.2,7.67-3.97,12-5.3,4.33-1.33,8.5-2.47,12.5-3.4,2.27-.4,4.37-.83,6.3-1.3,1.93-.47,3.63-.97,5.1-1.5,1.87-.53,3.03-1.27,3.5-2.2.47-.93.7-2.73.7-5.4,0-6.27-1.2-11.43-3.6-15.5-2.4-4.07-6.67-6.1-12.8-6.1-2.27,0-4.2.27-5.8.8-1.6.53-2.93,1.37-4,2.5-1.07,1.13-2,2.63-2.8,4.5-.8,1.87-1.6,4.07-2.4,6.6-.4,1.47-1.3,2.53-2.7,3.2-2.42,1.15-11.28,5.13-13.86,3.33-3.74-2.6.25-10.26,2.16-12.73,2.27-2.93,5.17-5.53,8.7-7.8,3.53-2.27,7.37-4.1,11.5-5.5,4.13-1.4,8.07-2.1,11.8-2.1,4.67,0,8.88.4,12.62,1.2,3.75.8,6.97,2.27,9.67,4.4,2.7,2.13,4.76,5,6.17,8.6,1.42,3.6,2.12,8.27,2.12,14v34.4c0,4.67.17,8.03.5,10.1.33,2.07.83,3.7,1.5,4.9.93,1.87,1.97,3.1,3.1,3.7,1.13.6,2.3.9,3.5.9,1.47,0,2.5-.13,3.1-.4.6-.27,1.23-.4,1.9-.4ZM269.53,428.64l-6.44,1c-3.49.67-6.88,1.47-10.16,2.4-3.29.93-6.2,2.23-8.75,3.9-2.55,1.67-4.59,3.77-6.14,6.3-1.54,2.53-2.31,5.67-2.31,9.4,0,5.07,1.31,8.93,3.92,11.6,2.62,2.67,5.87,4,9.76,4,2.55,0,5.06-.57,7.54-1.7,2.48-1.13,4.62-2.73,6.44-4.8,1.81-2.07,3.29-4.5,4.43-7.3,1.14-2.8,1.71-5.87,1.71-9.2v-15.6Z"/>
    <path d="M119.53,403.69c-18.09,14.44-44.32,17.48-65.81,9.64s-36.46-27.69-37.73-49.99c-2.78-48.57,56.19-70.06,93.05-83.14,108.4-38.47,221.68-62.26,335.85-75.28s231.47-15.62,347.29-11.44c107.39,3.87,226.25,8.27,315.83,75.32,36.11,27.03,66.5,65.4,74.08,110.82,6.78,40.65-4.97,84.83-33.8,114.75-7.36,7.64-15.66,14.15-24.76,19.61-5.51,3.31-.49,11.96,5.05,8.63,38.76-23.26,61.78-65.13,64.96-109.77s-16.57-90.21-47.97-123.83c-78.69-84.26-201.97-98.23-310.71-103.7-121.92-6.13-244.46-5.27-365.99,7.03-119.57,12.1-238.35,35.31-352.08,74.58-23.89,8.25-48.37,16.62-69.79,30.32-18.89,12.08-36.36,29.67-40.19,52.66s5.27,45.54,22.26,60.23c18.17,15.72,43.58,20.47,66.76,15.38,11.32-2.49,21.74-7.53,30.78-14.75,5.03-4.01-2.09-11.05-7.07-7.07h0Z"/>
    <path d="M1119.04,536.21c-.56,4.48-1.8,8.88-3.69,12.99-2.34,5.07-5.65,9.73-7.23,15.09-1.58,5.36-.93,11.95,3.49,15.37,3.7,2.86,9.25,2.61,13.14.01s6.18-7.16,6.76-11.8c1.05-8.31-1.78-15.03-3.97-19.9-2.39-5.33-5.24-12.17-8.27-20.63-.55,2.46,0,7.06-.23,8.88Z"/>
    <path d="M877.46,372.6s.02,0,.02-.01c.08-.28-13.64-6.51-27.69-5.76-5.87.31-12.5,3.49-12.5,3.49-1.1.68-.8,2.36.47,2.6,2.64.49,4.67,1.09,6.08,1.79,1.96.98,2.67,7.01,2.14,8.5-.03.08-.05.15-.06.23-.11.83-.32,2.38-.65,4.28-5.86,34.12-25.61,46.89-36.79,83.35-.61,1.98-1.5,5.03-2.41,8.89-.17.73-1.24.66-1.31-.09-.79-8.28-2.18-14.89-3.33-19.5-5.58-22.3-23.17-67.61-28.02-78.52-.27-.6-.42-1.58-.42-2.73,0-3.64,4.13-5.89,12.4-6.73.02,0,.07,0,.07-.03.07-.29-6.51-2.33-10.36-3.31-3.69-.94-9.12-2-16.13-2.23-5.61-.41-9.96.28-12.83.96-5.35,1.26-11.46,3.88-11.32,4.38,0,.01.01.04.04.06.31.21.68.34,1.11.38,5.05.7,8.55,1.54,10.51,2.52,1.96.98,3.36,2.45,4.2,4.41,16.07,36.81,32.14,73.62,48.21,110.43.02.05.04.09.05.14,1.52,4.85,3.02,9.41,4.51,13.67-.02.24,0,.46,0,.67.09.2.15.4.19.61.08.18.15.37.2.57.01,0,.02.02.03.03.07.03.15.05.26.05.2.58.4,1.14.61,1.7.18-.79.44-1.39.82-1.75.09-.31.23-.61.43-.87.08-.1.15-.21.19-.33,7.78-19.6,16.23-39.04,24.34-58.54,9.06-21.78,18.02-43.61,27.17-65.35M799.29,490.82c.77,1.76,1.3,3.45,1.83,5.13l-1.83-5.13ZM803.08,501.48c.21.39.58.96.51,1.42l-.51-1.42Z"/>
  </g>
  <text/>
</svg>